#!OML:ASF G:\JayActor3\Patient Classification 1\Patient 1\Session 6\male.ASF
:FULLY-SPECIFIED
:DEGREES
524
root 19.1779 15.634 -9.97332 19.2248 -61.7482 -29.209
lowerback 3.37616 1.35301 4.80988
upperback 5.80422 1.83966 -4.35202
thorax 4.46376 1.18961 -7.2731
lowerneck 8.57452 3.16681 -2.20254
upperneck 12.6434 2.62427 13.0565
head 2.08487 1.28472 4.30918
rclavicle -4.65156e-014 4.45278e-014
rhumerus -26.1947 23.5474 -97.8266
rradius 46.149
rwrist -3.02948
rhand -18.6949 -8.75217
rfingers 7.12502
rthumb 7.59963 -38.5956
lclavicle -4.65156e-014 4.45278e-014
lhumerus -30.309 -0.446552 71.3698
lradius 47.3439
lwrist 30.7333
lhand -22.0318 6.19138
lfingers 7.12502
lthumb 4.37803 36.1261
rfemur 5.91681 -8.57 31.3623
rtibia 53.5487
rfoot -4.07656 -13.931
rtoes 0.445409
lfemur -25.3601 14.2849 -4.83207
ltibia 42.6623
lfoot -12.9632 3.18986
ltoes 0.408599
525
root 19.0719 15.6355 -9.8878 18.8844 -61.9928 -29.1519
lowerback 3.73072 1.2838 4.43055
upperback 5.92418 1.75016 -4.60368
thorax 4.37032 1.12993 -7.33339
lowerneck 8.64115 3.29278 -2.17801
upperneck 12.5557 2.77383 13.381
head 2.02779 1.35626 4.40037
rclavicle 1.82882e-014 -4.45278e-014
rhumerus -26.7048 23.3604 -98.0038
rradius 45.8295
rwrist -2.76084
rhand -18.7085 -8.80549
rfingers 7.12502
rthumb 7.58654 -38.6494
lclavicle 1.82882e-014 -4.45278e-014
lhumerus -29.6126 -0.552214 71.6837
lradius 47.3767
lwrist 30.5177
lhand -21.897 5.92543
lfingers 7.12502
lthumb 4.50827 35.8574
rfemur 4.80334 -9.11869 30.7918
rtibia 56.0984
rfoot -2.57435 -15.128
rtoes 3.17262
lfemur -24.5518 14.3148 -4.84379
ltibia 42.9627
lfoot -13.2797 3.24067
ltoes 1.48255
526
root 18.9685 15.6378 -9.80317 18.5807 -62.2706 -29.1219
lowerback 4.11519 1.2354 4.08849
upperback 6.01437 1.68571 -4.84547
thorax 4.2345 1.08213 -7.40444
lowerneck 8.68809 3.39965 -2.13411
upperneck 12.5184 2.89559 13.671
head 1.99198 1.4161 4.47908
rclavicle -5.4467e-014 4.13472e-014
rhumerus -27.2472 23.033 -98.1571
rradius 45.4734
rwrist -2.52777
rhand -18.7802 -8.81779
rfingers 7.12502
rthumb 7.51734 -38.6642
lclavicle -5.4467e-014 4.13472e-014
lhumerus -28.9064 -0.741211 71.9957
lradius 47.425
lwrist 30.2063
lhand -21.7562 5.68342
lfingers 7.12502
lthumb 4.64417 35.6125
rfemur 3.64703 -9.60376 30.265
rtibia 58.5467
rfoot -1.39901 -16.4102
rtoes 5.4501
lfemur -23.7255 14.3459 -4.85739
ltibia 43.2115
lfoot -13.6429 3.35158
ltoes 2.20913
527
root 18.8675 15.6408 -9.72019 18.3592 -62.5854 -29.1487
lowerback 4.51218 1.20382 3.77667
upperback 6.06925 1.64048 -5.06774
thorax 4.05841 1.04302 -7.47168
lowerneck 8.70994 3.49631 -2.07993
upperneck 12.5338 3.00031 13.9253
head 1.97815 1.46973 4.54653
rclavicle 3.37934e-014 -3.81667e-014
rhumerus -27.8015 22.5775 -98.2744
rradius 45.0703
rwrist -2.35913
rhand -18.8627 -8.78536
rfingers 7.12502
rthumb 7.4377 -38.6346
lclavicle 3.37934e-014 -3.81667e-014
lhumerus -28.2065 -0.979829 72.301
lradius 47.4948
lwrist 29.8441
lhand -21.6759 5.44776
lfingers 7.12502
lthumb 4.7217 35.3751
rfemur 2.4265 -10.0144 29.8142
rtibia 60.8819
rfoot -0.729689 -17.6836
rtoes 7.13804
lfemur -22.9085 14.3959 -4.86003
ltibia 43.4155
lfoot -14.0518 3.49605
ltoes 2.59999
528
root 18.769 15.6446 -9.63851 18.2579 -62.9603 -29.2518
lowerback 4.88992 1.19339 3.49192
upperback 6.0901 1.62009 -5.26716
thorax 3.86183 1.01611 -7.52942
lowerneck 8.71238 3.58696 -2.00772
upperneck 12.5834 3.09766 14.1279
head 1.98001 1.52158 4.59595
rclavicle -6.36111e-015 -6.36111e-015
rhumerus -28.3458 22.0339 -98.3487
rradius 44.6075
rwrist -2.21642
rhand -18.97 -8.73096
rfingers 7.12502
rthumb 7.33415 -38.5838
lclavicle -6.36111e-015 -6.36111e-015
lhumerus -27.5279 -1.27135 72.6035
lradius 47.6076
lwrist 29.4942
lhand -21.6729 5.18908
lfingers 7.12502
lthumb 4.72464 35.1164
rfemur 1.12163 -10.3283 29.4426
rtibia 63.0885
rfoot -0.638047 -18.8168
rtoes 8.20225
lfemur -22.1132 14.4831 -4.85403
ltibia 43.5772
lfoot -14.503 3.67046
ltoes 2.74365
529
root 18.6726 15.6497 -9.55695 18.28 -63.3742 -29.4306
lowerback 5.21323 1.19476 3.24167
upperback 6.09142 1.61297 -5.43452
thorax 3.67778 0.997183 -7.57157
lowerneck 8.696 3.67532 -1.93019
upperneck 12.6473 3.19544 14.2714
head 1.99094 1.57459 4.62672
rclavicle 4.33351e-014 9.54166e-015
rhumerus -28.857 21.4241 -98.3599
rradius 44.0813
rwrist -2.05873
rhand -19.1048 -8.67326
rfingers 7.12502
rthumb 7.20402 -38.5306
lclavicle 4.33351e-014 9.54166e-015
lhumerus -26.8713 -1.59549 72.9134
lradius 47.7766
lwrist 29.1929
lhand -21.7408 4.91612
lfingers 7.12502
lthumb 4.6591 34.8449
rfemur -0.256937 -10.56 29.1512
rtibia 65.1346
rfoot -1.096 -19.6703
rtoes 8.79587
lfemur -21.3431 14.592 -4.83976
ltibia 43.694
lfoot -14.9836 3.85882
ltoes 2.76193
530
root 18.5776 15.6569 -9.47431 18.3576 -63.7991 -29.6256
lowerback 5.45828 1.19345 3.0098
upperback 6.09821 1.60064 -5.5666
thorax 3.54215 0.977647 -7.58464
lowerneck 8.66263 3.7652 -1.8487
upperneck 12.7026 3.30343 14.3415
head 2.0037 1.63278 4.63399
rclavicle 3.18055e-015 1.20861e-013
rhumerus -29.305 20.7821 -98.2904
rradius 43.4897
rwrist -1.86499
rhand -19.2521 -8.63668
rfingers 7.12502
rthumb 7.06178 -38.4989
lclavicle 3.18055e-015 1.20861e-013
lhumerus -26.2316 -1.93556 73.2379
lradius 48.0145
lwrist 28.9692
lhand -21.8488 4.6431
lfingers 7.12502
lthumb 4.5548 34.5741
rfemur -1.67475 -10.7313 28.9104
rtibia 66.9835
rfoot -1.9394 -20.1446
rtoes 9.0591
lfemur -20.5798 14.6973 -4.84177
ltibia 43.7571
lfoot -15.471 4.05461
ltoes 2.71018
531
root 18.4834 15.6668 -9.38951 18.4551 -64.2084 -29.8092
lowerback 5.60996 1.17386 2.79702
upperback 6.12408 1.56384 -5.66155
thorax 3.47455 0.948532 -7.56621
lowerneck 8.62261 3.86225 -1.76029
upperneck 12.7359 3.43266 14.3244
head 2.01239 1.70071 4.61241
rclavicle -2.34566e-014 -1.59028e-014
rhumerus -29.68 20.1348 -98.1384
rradius 42.8283
rwrist -1.61748
rhand -19.4153 -8.59595
rfingers 7.12502
rthumb 6.90428 -38.4634
lclavicle -2.34566e-014 -1.59028e-014
lhumerus -25.6104 -2.26195 73.5711
lradius 48.3208
lwrist 28.8329
lhand -21.9743 4.36707
lfingers 7.12502
lthumb 4.43354 34.3007
rfemur -3.09883 -10.8642 28.7046
rtibia 68.5999
rfoot -2.94266 -20.2094
rtoes 9.02322
lfemur -19.8081 14.7716 -4.86657
ltibia 43.7578
lfoot -15.9553 4.2448
ltoes 2.69095
532
root 18.3897 15.6796 -9.30297 18.5834 -64.5835 -29.9958
lowerback 5.67006 1.12815 2.61149
upperback 6.17243 1.49374 -5.71348
thorax 3.47631 0.905602 -7.51442
lowerneck 8.56796 3.9654 -1.67151
upperneck 12.753 3.58059 14.2205
head 2.02021 1.77736 4.56351
rclavicle -8.90555e-014 1.90833e-014
rhumerus -29.9789 19.4999 -97.9065
rradius 42.0998
rwrist -1.31528
rhand -19.6366 -8.55323
rfingers 7.12502
rthumb 6.69066 -38.4275
lclavicle -8.90555e-014 1.90833e-014
lhumerus -25.0144 -2.57509 73.9079
lradius 48.7032
lwrist 28.8015
lhand -22.056 4.10186
lfingers 7.12502
lthumb 4.35468 34.0371
rfemur -4.52289 -10.9598 28.5535
rtibia 69.9668
rfoot -3.90683 -19.9166
rtoes 8.75101
lfemur -19.032 14.8098 -4.90243
ltibia 43.6901
lfoot -16.4201 4.4306
ltoes 2.67414
533
root 18.2961 15.6955 -9.21493 18.7479 -64.9211 -30.201
lowerback 5.6546 1.05533 2.46275
upperback 6.23893 1.39001 -5.72595
thorax 3.53456 0.848622 -7.43921
lowerneck 8.50338 4.07386 -1.58045
upperneck 12.7579 3.74466 14.039
head 2.02775 1.86146 4.49006
rclavicle -5.96354e-014 -3.81667e-014
rhumerus -30.2122 18.8784 -97.6078
rradius 41.3101
rwrist -0.975977
rhand -19.9022 -8.49526
rfingers 7.12502
rthumb 6.43422 -38.3775
lclavicle -5.96354e-014 -3.81667e-014
lhumerus -24.4482 -2.87301 74.2299
lradius 49.152
lwrist 28.8621
lhand -22.0365 3.86571
lfingers 7.12502
lthumb 4.37348 33.8006
rfemur -5.93206 -11.0168 28.4689
rtibia 71.0811
rfoot -4.70597 -19.3848
rtoes 8.12118
lfemur -18.2407 14.8117 -4.93675
ltibia 43.5518
lfoot -16.867 4.60863
ltoes 2.68357
534
root 18.203 15.7138 -9.12635 18.9556 -65.253 -30.4258
lowerback 5.58985 0.96942 2.34516
upperback 6.30484 1.27099 -5.71228
thorax 3.61806 0.78561 -7.35286
lowerneck 8.43472 4.18217 -1.47984
upperneck 12.7615 3.91493 13.7939
head 2.03801 1.94845 4.39559
rclavicle -1.66979e-014 3.81667e-014
rhumerus -30.4046 18.255 -97.2644
rradius 40.4682
rwrist -0.602492
rhand -20.1497 -8.41483
rfingers 7.12502
rthumb 6.1953 -38.3042
lclavicle -1.66979e-014 3.81667e-014
lhumerus -23.9214 -3.17119 74.5229
lradius 49.6549
lwrist 28.9964
lhand -21.8957 3.66181
lfingers 7.12502
lthumb 4.50949 33.5938
rfemur -7.33898 -11.0123 28.448
rtibia 71.962
rfoot -5.39941 -18.6899
rtoes 7.18169
lfemur -17.4389 14.8037 -4.98007
ltibia 43.3424
lfoot -17.2877 4.79973
ltoes 2.67695
535
root 18.1106 15.7342 -9.03864 19.1767 -65.569 -30.6403
lowerback 5.51221 0.870231 2.25061
upperback 6.35766 1.13563 -5.68027
thorax 3.6932 0.714774 -7.25976
lowerneck 8.35367 4.28799 -1.38172
upperneck 12.7783 4.08326 13.5111
head 2.05612 2.03483 4.29081
rclavicle 4.6118e-014 -6.36111e-014
rhumerus -30.5767 17.6023 -96.8842
rradius 39.5915
rwrist -0.216991
rhand -20.3419 -8.31846
rfingers 7.12502
rthumb 6.00972 -38.2132
lclavicle 4.6118e-014 -6.36111e-014
lhumerus -23.4347 -3.4693 74.7782
lradius 50.1989
lwrist 29.1682
lhand -21.6191 3.52057
lfingers 7.12502
lthumb 4.77653 33.4467
rfemur -8.74691 -10.9629 28.4915
rtibia 72.631
rfoot -6.06976 -17.8841
rtoes 6.01836
lfemur -16.6356 14.78 -5.03856
ltibia 43.0596
lfoot -17.6719 4.99877
ltoes 2.66052
536
root 18.0178 15.7568 -8.95106 19.3736 -65.9291 -30.8179
lowerback 5.43879 0.779719 2.16274
upperback 6.39073 1.01206 -5.653
thorax 3.74777 0.649463 -7.17616
lowerneck 8.3897 4.38432 -1.18933
upperneck 12.497 4.31788 12.8292
head 2.26423 2.11424 4.47523
rclavicle -3.33958e-014 2.54444e-014
rhumerus -30.7496 16.9038 -96.4894
rradius 38.6955
rwrist 0.173591
rhand -20.4226 -8.21439
rfingers 7.12502
rthumb 5.9318 -38.1114
lclavicle -3.33958e-014 2.54444e-014
lhumerus -23.0034 -3.80115 74.9816
lradius 50.7876
lwrist 29.3617
lhand -21.2575 3.45615
lfingers 7.12502
lthumb 5.12567 33.3742
rfemur -10.1392 -10.833 28.5555
rtibia 73.1111
rfoot -6.75531 -17.0153
rtoes 4.68829
lfemur -15.7886 14.7711 -5.13981
ltibia 42.6947
lfoot -18.0307 5.22341
ltoes 2.63931
